<mxfile host="app.diagrams.net" modified="2024-05-01T10:41:48.522Z" agent="Mozilla/5.0 (Macintosh; Intel Mac OS X 10_15_7) AppleWebKit/537.36 (KHTML, like Gecko) Chrome/124.0.0.0 Safari/537.36" etag="SwmC7JRKj4W8q3FL4kt-" version="24.3.1" type="google">
  <diagram id="C5RBs43oDa-KdzZeNtuy" name="Page-1">
    <mxGraphModel grid="1" page="1" gridSize="10" guides="1" tooltips="1" connect="1" arrows="1" fold="1" pageScale="1" pageWidth="827" pageHeight="1169" math="0" shadow="0">
      <root>
        <mxCell id="WIyWlLk6GJQsqaUBKTNV-0" />
        <mxCell id="WIyWlLk6GJQsqaUBKTNV-1" parent="WIyWlLk6GJQsqaUBKTNV-0" />
        <mxCell id="YfJi4UTB4DRv9i2F9Ru6-0" value="Negozio" style="html=1;whiteSpace=wrap;" vertex="1" parent="WIyWlLk6GJQsqaUBKTNV-1">
          <mxGeometry x="150" y="820" width="110" height="50" as="geometry" />
        </mxCell>
        <mxCell id="YfJi4UTB4DRv9i2F9Ru6-1" value="Inventario" style="html=1;whiteSpace=wrap;" vertex="1" parent="WIyWlLk6GJQsqaUBKTNV-1">
          <mxGeometry x="1250" y="520" width="110" height="50" as="geometry" />
        </mxCell>
        <mxCell id="YfJi4UTB4DRv9i2F9Ru6-2" value="Categoria" style="html=1;whiteSpace=wrap;" vertex="1" parent="WIyWlLk6GJQsqaUBKTNV-1">
          <mxGeometry x="150" y="520" width="110" height="50" as="geometry" />
        </mxCell>
        <mxCell id="YfJi4UTB4DRv9i2F9Ru6-3" value="Prodotto" style="html=1;whiteSpace=wrap;" vertex="1" parent="WIyWlLk6GJQsqaUBKTNV-1">
          <mxGeometry x="710" y="520" width="110" height="50" as="geometry" />
        </mxCell>
        <mxCell id="YfJi4UTB4DRv9i2F9Ru6-4" value="Magazzino" style="html=1;whiteSpace=wrap;" vertex="1" parent="WIyWlLk6GJQsqaUBKTNV-1">
          <mxGeometry x="680" y="240" width="110" height="50" as="geometry" />
        </mxCell>
        <mxCell id="YfJi4UTB4DRv9i2F9Ru6-5" value="Transazione" style="html=1;whiteSpace=wrap;" vertex="1" parent="WIyWlLk6GJQsqaUBKTNV-1">
          <mxGeometry x="710" y="820" width="110" height="50" as="geometry" />
        </mxCell>
        <mxCell id="YfJi4UTB4DRv9i2F9Ru6-6" value="NomeProdotto" style="ellipse;whiteSpace=wrap;html=1;align=center;" vertex="1" parent="WIyWlLk6GJQsqaUBKTNV-1">
          <mxGeometry x="610" y="630" width="100" height="40" as="geometry" />
        </mxCell>
        <mxCell id="YfJi4UTB4DRv9i2F9Ru6-7" value="IdProdotto" style="ellipse;whiteSpace=wrap;html=1;align=center;fontStyle=4;" vertex="1" parent="WIyWlLk6GJQsqaUBKTNV-1">
          <mxGeometry x="715" y="420" width="100" height="40" as="geometry" />
        </mxCell>
        <mxCell id="YfJi4UTB4DRv9i2F9Ru6-9" value="NomeCategoria" style="ellipse;whiteSpace=wrap;html=1;align=center;" vertex="1" parent="WIyWlLk6GJQsqaUBKTNV-1">
          <mxGeometry x="50" y="630" width="100" height="40" as="geometry" />
        </mxCell>
        <mxCell id="YfJi4UTB4DRv9i2F9Ru6-10" value="IdCategoria" style="ellipse;whiteSpace=wrap;html=1;align=center;" vertex="1" parent="WIyWlLk6GJQsqaUBKTNV-1">
          <mxGeometry x="830" y="630" width="100" height="40" as="geometry" />
        </mxCell>
        <mxCell id="YfJi4UTB4DRv9i2F9Ru6-11" value="IdCategoria" style="ellipse;whiteSpace=wrap;html=1;align=center;fontStyle=4;" vertex="1" parent="WIyWlLk6GJQsqaUBKTNV-1">
          <mxGeometry x="155" y="420" width="100" height="40" as="geometry" />
        </mxCell>
        <mxCell id="YfJi4UTB4DRv9i2F9Ru6-12" value="IdMagazzino&lt;div&gt;IdProdotto&lt;/div&gt;" style="ellipse;whiteSpace=wrap;html=1;align=center;fontStyle=4;" vertex="1" parent="WIyWlLk6GJQsqaUBKTNV-1">
          <mxGeometry x="1255" y="420" width="100" height="40" as="geometry" />
        </mxCell>
        <mxCell id="YfJi4UTB4DRv9i2F9Ru6-13" value="InEsaurimento" style="ellipse;whiteSpace=wrap;html=1;align=center;" vertex="1" parent="WIyWlLk6GJQsqaUBKTNV-1">
          <mxGeometry x="1360" y="630" width="100" height="40" as="geometry" />
        </mxCell>
        <mxCell id="YfJi4UTB4DRv9i2F9Ru6-15" value="QuantitÃ Giacenza" style="ellipse;whiteSpace=wrap;html=1;align=center;" vertex="1" parent="WIyWlLk6GJQsqaUBKTNV-1">
          <mxGeometry x="1150" y="630" width="100" height="40" as="geometry" />
        </mxCell>
        <mxCell id="sASGyN4ZqEYZBtg2-GMr-1" value="" style="edgeStyle=orthogonalEdgeStyle;rounded=0;orthogonalLoop=1;jettySize=auto;html=1;" edge="1" parent="WIyWlLk6GJQsqaUBKTNV-1" target="YfJi4UTB4DRv9i2F9Ru6-4">
          <mxGeometry relative="1" as="geometry">
            <mxPoint x="735" y="210" as="sourcePoint" />
          </mxGeometry>
        </mxCell>
        <mxCell id="YfJi4UTB4DRv9i2F9Ru6-16" value="IdMagazzino" style="ellipse;whiteSpace=wrap;html=1;align=center;fontStyle=4;" vertex="1" parent="WIyWlLk6GJQsqaUBKTNV-1">
          <mxGeometry x="685" y="170" width="100" height="40" as="geometry" />
        </mxCell>
        <mxCell id="YfJi4UTB4DRv9i2F9Ru6-17" value="NomeMagazzino" style="ellipse;whiteSpace=wrap;html=1;align=center;" vertex="1" parent="WIyWlLk6GJQsqaUBKTNV-1">
          <mxGeometry x="870" y="245" width="100" height="40" as="geometry" />
        </mxCell>
        <mxCell id="YfJi4UTB4DRv9i2F9Ru6-18" value="IdTransazione" style="ellipse;whiteSpace=wrap;html=1;align=center;fontStyle=4;" vertex="1" parent="WIyWlLk6GJQsqaUBKTNV-1">
          <mxGeometry x="715" y="730" width="100" height="40" as="geometry" />
        </mxCell>
        <mxCell id="YfJi4UTB4DRv9i2F9Ru6-19" value="DataTransazione" style="ellipse;whiteSpace=wrap;html=1;align=center;" vertex="1" parent="WIyWlLk6GJQsqaUBKTNV-1">
          <mxGeometry x="910" y="730" width="100" height="40" as="geometry" />
        </mxCell>
        <mxCell id="YfJi4UTB4DRv9i2F9Ru6-20" value="QuantitaVenduta" style="ellipse;whiteSpace=wrap;html=1;align=center;" vertex="1" parent="WIyWlLk6GJQsqaUBKTNV-1">
          <mxGeometry x="530" y="730" width="100" height="40" as="geometry" />
        </mxCell>
        <mxCell id="YfJi4UTB4DRv9i2F9Ru6-21" value="IdNegozio" style="ellipse;whiteSpace=wrap;html=1;align=center;" vertex="1" parent="WIyWlLk6GJQsqaUBKTNV-1">
          <mxGeometry x="910" y="930" width="100" height="40" as="geometry" />
        </mxCell>
        <mxCell id="YfJi4UTB4DRv9i2F9Ru6-22" value="IdProdotto" style="ellipse;whiteSpace=wrap;html=1;align=center;" vertex="1" parent="WIyWlLk6GJQsqaUBKTNV-1">
          <mxGeometry x="530" y="930" width="100" height="40" as="geometry" />
        </mxCell>
        <mxCell id="YfJi4UTB4DRv9i2F9Ru6-23" value="IdNegozio" style="ellipse;whiteSpace=wrap;html=1;align=center;fontStyle=4;" vertex="1" parent="WIyWlLk6GJQsqaUBKTNV-1">
          <mxGeometry x="155" y="730" width="100" height="40" as="geometry" />
        </mxCell>
        <mxCell id="YfJi4UTB4DRv9i2F9Ru6-24" value="NomeNegozio" style="ellipse;whiteSpace=wrap;html=1;align=center;" vertex="1" parent="WIyWlLk6GJQsqaUBKTNV-1">
          <mxGeometry x="260" y="910" width="100" height="40" as="geometry" />
        </mxCell>
        <mxCell id="YfJi4UTB4DRv9i2F9Ru6-25" value="IndirizzoNegozio" style="ellipse;whiteSpace=wrap;html=1;align=center;" vertex="1" parent="WIyWlLk6GJQsqaUBKTNV-1">
          <mxGeometry x="50" y="910" width="100" height="40" as="geometry" />
        </mxCell>
        <mxCell id="YfJi4UTB4DRv9i2F9Ru6-26" value="" style="endArrow=block;startArrow=block;endFill=1;startFill=1;html=1;rounded=0;entryX=0.5;entryY=0;entryDx=0;entryDy=0;exitX=0.5;exitY=1;exitDx=0;exitDy=0;" edge="1" parent="WIyWlLk6GJQsqaUBKTNV-1" source="YfJi4UTB4DRv9i2F9Ru6-11" target="YfJi4UTB4DRv9i2F9Ru6-2">
          <mxGeometry width="160" relative="1" as="geometry">
            <mxPoint x="125" y="490" as="sourcePoint" />
            <mxPoint x="285" y="490" as="targetPoint" />
            <Array as="points">
              <mxPoint x="205" y="490" />
            </Array>
          </mxGeometry>
        </mxCell>
        <mxCell id="YfJi4UTB4DRv9i2F9Ru6-27" value="" style="endArrow=block;startArrow=block;endFill=1;startFill=1;html=1;rounded=0;entryX=0;entryY=1;entryDx=0;entryDy=0;exitX=1;exitY=0;exitDx=0;exitDy=0;" edge="1" parent="WIyWlLk6GJQsqaUBKTNV-1" source="YfJi4UTB4DRv9i2F9Ru6-6" target="YfJi4UTB4DRv9i2F9Ru6-3">
          <mxGeometry width="160" relative="1" as="geometry">
            <mxPoint x="570" y="600" as="sourcePoint" />
            <mxPoint x="730" y="600" as="targetPoint" />
          </mxGeometry>
        </mxCell>
        <mxCell id="YfJi4UTB4DRv9i2F9Ru6-28" value="" style="endArrow=block;startArrow=block;endFill=1;startFill=1;html=1;rounded=0;exitX=0.5;exitY=1;exitDx=0;exitDy=0;entryX=0.5;entryY=0;entryDx=0;entryDy=0;" edge="1" parent="WIyWlLk6GJQsqaUBKTNV-1" source="YfJi4UTB4DRv9i2F9Ru6-7" target="YfJi4UTB4DRv9i2F9Ru6-3">
          <mxGeometry width="160" relative="1" as="geometry">
            <mxPoint x="670" y="490" as="sourcePoint" />
            <mxPoint x="830" y="490" as="targetPoint" />
          </mxGeometry>
        </mxCell>
        <mxCell id="YfJi4UTB4DRv9i2F9Ru6-29" value="" style="endArrow=block;startArrow=block;endFill=1;startFill=1;html=1;rounded=0;entryX=0;entryY=1;entryDx=0;entryDy=0;exitX=1;exitY=0;exitDx=0;exitDy=0;" edge="1" parent="WIyWlLk6GJQsqaUBKTNV-1" source="YfJi4UTB4DRv9i2F9Ru6-9" target="YfJi4UTB4DRv9i2F9Ru6-2">
          <mxGeometry width="160" relative="1" as="geometry">
            <mxPoint x="60" y="600" as="sourcePoint" />
            <mxPoint x="220" y="600" as="targetPoint" />
          </mxGeometry>
        </mxCell>
        <mxCell id="YfJi4UTB4DRv9i2F9Ru6-31" value="" style="endArrow=block;startArrow=block;endFill=1;startFill=1;html=1;rounded=0;entryX=0;entryY=1;entryDx=0;entryDy=0;exitX=1;exitY=0;exitDx=0;exitDy=0;" edge="1" parent="WIyWlLk6GJQsqaUBKTNV-1" source="YfJi4UTB4DRv9i2F9Ru6-25" target="YfJi4UTB4DRv9i2F9Ru6-0">
          <mxGeometry width="160" relative="1" as="geometry">
            <mxPoint x="60" y="880" as="sourcePoint" />
            <mxPoint x="220" y="880" as="targetPoint" />
          </mxGeometry>
        </mxCell>
        <mxCell id="YfJi4UTB4DRv9i2F9Ru6-32" value="" style="endArrow=block;startArrow=block;endFill=1;startFill=1;html=1;rounded=0;exitX=1;exitY=1;exitDx=0;exitDy=0;entryX=0;entryY=0;entryDx=0;entryDy=0;" edge="1" parent="WIyWlLk6GJQsqaUBKTNV-1" source="YfJi4UTB4DRv9i2F9Ru6-0" target="YfJi4UTB4DRv9i2F9Ru6-24">
          <mxGeometry width="160" relative="1" as="geometry">
            <mxPoint x="270" y="870" as="sourcePoint" />
            <mxPoint x="430" y="870" as="targetPoint" />
          </mxGeometry>
        </mxCell>
        <mxCell id="YfJi4UTB4DRv9i2F9Ru6-33" value="" style="endArrow=block;startArrow=block;endFill=1;startFill=1;html=1;rounded=0;entryX=0.5;entryY=1;entryDx=0;entryDy=0;exitX=0.5;exitY=0;exitDx=0;exitDy=0;" edge="1" parent="WIyWlLk6GJQsqaUBKTNV-1" source="YfJi4UTB4DRv9i2F9Ru6-0" target="YfJi4UTB4DRv9i2F9Ru6-23">
          <mxGeometry width="160" relative="1" as="geometry">
            <mxPoint x="125" y="790" as="sourcePoint" />
            <mxPoint x="285" y="790" as="targetPoint" />
          </mxGeometry>
        </mxCell>
        <mxCell id="YfJi4UTB4DRv9i2F9Ru6-34" value="" style="endArrow=block;startArrow=block;endFill=1;startFill=1;html=1;rounded=0;exitX=1;exitY=1;exitDx=0;exitDy=0;entryX=0;entryY=0;entryDx=0;entryDy=0;" edge="1" parent="WIyWlLk6GJQsqaUBKTNV-1" source="YfJi4UTB4DRv9i2F9Ru6-3" target="YfJi4UTB4DRv9i2F9Ru6-10">
          <mxGeometry width="160" relative="1" as="geometry">
            <mxPoint x="800" y="600" as="sourcePoint" />
            <mxPoint x="960" y="600" as="targetPoint" />
          </mxGeometry>
        </mxCell>
        <mxCell id="YfJi4UTB4DRv9i2F9Ru6-35" value="" style="endArrow=block;startArrow=block;endFill=1;startFill=1;html=1;rounded=0;entryX=0;entryY=0.5;entryDx=0;entryDy=0;exitX=1;exitY=0;exitDx=0;exitDy=0;" edge="1" parent="WIyWlLk6GJQsqaUBKTNV-1" source="YfJi4UTB4DRv9i2F9Ru6-5" target="YfJi4UTB4DRv9i2F9Ru6-19">
          <mxGeometry width="160" relative="1" as="geometry">
            <mxPoint x="830" y="840" as="sourcePoint" />
            <mxPoint x="850" y="890" as="targetPoint" />
          </mxGeometry>
        </mxCell>
        <mxCell id="YfJi4UTB4DRv9i2F9Ru6-36" value="" style="endArrow=block;startArrow=block;endFill=1;startFill=1;html=1;rounded=0;exitX=1;exitY=0.5;exitDx=0;exitDy=0;entryX=0;entryY=0;entryDx=0;entryDy=0;" edge="1" parent="WIyWlLk6GJQsqaUBKTNV-1" source="YfJi4UTB4DRv9i2F9Ru6-20" target="YfJi4UTB4DRv9i2F9Ru6-5">
          <mxGeometry width="160" relative="1" as="geometry">
            <mxPoint x="580" y="900" as="sourcePoint" />
            <mxPoint x="680" y="840" as="targetPoint" />
          </mxGeometry>
        </mxCell>
        <mxCell id="YfJi4UTB4DRv9i2F9Ru6-37" value="" style="endArrow=block;startArrow=block;endFill=1;startFill=1;html=1;rounded=0;entryX=0.5;entryY=1;entryDx=0;entryDy=0;exitX=0.5;exitY=0;exitDx=0;exitDy=0;" edge="1" parent="WIyWlLk6GJQsqaUBKTNV-1" source="YfJi4UTB4DRv9i2F9Ru6-5" target="YfJi4UTB4DRv9i2F9Ru6-18">
          <mxGeometry width="160" relative="1" as="geometry">
            <mxPoint x="690" y="790" as="sourcePoint" />
            <mxPoint x="850" y="790" as="targetPoint" />
          </mxGeometry>
        </mxCell>
        <mxCell id="YfJi4UTB4DRv9i2F9Ru6-38" value="" style="endArrow=block;startArrow=block;endFill=1;startFill=1;html=1;rounded=0;entryX=0.5;entryY=1;entryDx=0;entryDy=0;exitX=0.5;exitY=0;exitDx=0;exitDy=0;" edge="1" parent="WIyWlLk6GJQsqaUBKTNV-1" source="YfJi4UTB4DRv9i2F9Ru6-1" target="YfJi4UTB4DRv9i2F9Ru6-12">
          <mxGeometry width="160" relative="1" as="geometry">
            <mxPoint x="1040" y="730" as="sourcePoint" />
            <mxPoint x="1200" y="730" as="targetPoint" />
          </mxGeometry>
        </mxCell>
        <mxCell id="YfJi4UTB4DRv9i2F9Ru6-39" value="" style="endArrow=block;startArrow=block;endFill=1;startFill=1;html=1;rounded=0;entryX=0;entryY=1;entryDx=0;entryDy=0;exitX=1;exitY=0;exitDx=0;exitDy=0;" edge="1" parent="WIyWlLk6GJQsqaUBKTNV-1" source="YfJi4UTB4DRv9i2F9Ru6-22" target="YfJi4UTB4DRv9i2F9Ru6-5">
          <mxGeometry width="160" relative="1" as="geometry">
            <mxPoint x="400" y="949" as="sourcePoint" />
            <mxPoint x="560" y="949" as="targetPoint" />
          </mxGeometry>
        </mxCell>
        <mxCell id="YfJi4UTB4DRv9i2F9Ru6-40" value="" style="endArrow=block;startArrow=block;endFill=1;startFill=1;html=1;rounded=0;entryX=0;entryY=0;entryDx=0;entryDy=0;exitX=1;exitY=1;exitDx=0;exitDy=0;" edge="1" parent="WIyWlLk6GJQsqaUBKTNV-1" source="YfJi4UTB4DRv9i2F9Ru6-5" target="YfJi4UTB4DRv9i2F9Ru6-21">
          <mxGeometry width="160" relative="1" as="geometry">
            <mxPoint x="670" y="980" as="sourcePoint" />
            <mxPoint x="830" y="980" as="targetPoint" />
          </mxGeometry>
        </mxCell>
        <mxCell id="YfJi4UTB4DRv9i2F9Ru6-41" value="" style="endArrow=block;startArrow=block;endFill=1;startFill=1;html=1;rounded=0;entryX=1;entryY=1;entryDx=0;entryDy=0;exitX=0;exitY=0;exitDx=0;exitDy=0;" edge="1" parent="WIyWlLk6GJQsqaUBKTNV-1" source="YfJi4UTB4DRv9i2F9Ru6-13" target="YfJi4UTB4DRv9i2F9Ru6-1">
          <mxGeometry width="160" relative="1" as="geometry">
            <mxPoint x="1260" y="640" as="sourcePoint" />
            <mxPoint x="1420" y="640" as="targetPoint" />
          </mxGeometry>
        </mxCell>
        <mxCell id="YfJi4UTB4DRv9i2F9Ru6-42" value="" style="endArrow=block;startArrow=block;endFill=1;startFill=1;html=1;rounded=0;exitX=0;exitY=1;exitDx=0;exitDy=0;entryX=1;entryY=0;entryDx=0;entryDy=0;" edge="1" parent="WIyWlLk6GJQsqaUBKTNV-1" source="YfJi4UTB4DRv9i2F9Ru6-1" target="YfJi4UTB4DRv9i2F9Ru6-15">
          <mxGeometry width="160" relative="1" as="geometry">
            <mxPoint x="1260" y="640" as="sourcePoint" />
            <mxPoint x="1420" y="640" as="targetPoint" />
          </mxGeometry>
        </mxCell>
        <mxCell id="YfJi4UTB4DRv9i2F9Ru6-45" value="" style="endArrow=block;startArrow=block;endFill=1;startFill=1;html=1;rounded=0;entryX=0.5;entryY=0;entryDx=0;entryDy=0;" edge="1" parent="WIyWlLk6GJQsqaUBKTNV-1" target="YfJi4UTB4DRv9i2F9Ru6-4">
          <mxGeometry width="160" relative="1" as="geometry">
            <mxPoint x="735" y="210" as="sourcePoint" />
            <mxPoint x="650" y="290" as="targetPoint" />
            <Array as="points" />
          </mxGeometry>
        </mxCell>
        <mxCell id="YfJi4UTB4DRv9i2F9Ru6-46" value="" style="endArrow=block;startArrow=block;endFill=1;startFill=1;html=1;rounded=0;entryX=0;entryY=0.5;entryDx=0;entryDy=0;exitX=1;exitY=0.5;exitDx=0;exitDy=0;" edge="1" parent="WIyWlLk6GJQsqaUBKTNV-1" source="YfJi4UTB4DRv9i2F9Ru6-4" target="YfJi4UTB4DRv9i2F9Ru6-17">
          <mxGeometry width="160" relative="1" as="geometry">
            <mxPoint x="660" y="260" as="sourcePoint" />
            <mxPoint x="820" y="260" as="targetPoint" />
          </mxGeometry>
        </mxCell>
        <mxCell id="YfJi4UTB4DRv9i2F9Ru6-47" value="" style="endArrow=block;startArrow=block;endFill=1;startFill=1;html=1;rounded=0;entryX=0;entryY=0.5;entryDx=0;entryDy=0;exitX=1;exitY=0.5;exitDx=0;exitDy=0;" edge="1" parent="WIyWlLk6GJQsqaUBKTNV-1" source="YfJi4UTB4DRv9i2F9Ru6-2" target="YfJi4UTB4DRv9i2F9Ru6-3">
          <mxGeometry width="160" relative="1" as="geometry">
            <mxPoint x="384" y="554.5" as="sourcePoint" />
            <mxPoint x="544" y="554.5" as="targetPoint" />
          </mxGeometry>
        </mxCell>
        <mxCell id="YfJi4UTB4DRv9i2F9Ru6-48" value="" style="endArrow=block;startArrow=block;endFill=1;startFill=1;html=1;rounded=0;entryX=0;entryY=0.5;entryDx=0;entryDy=0;exitX=1;exitY=0.5;exitDx=0;exitDy=0;" edge="1" parent="WIyWlLk6GJQsqaUBKTNV-1" source="YfJi4UTB4DRv9i2F9Ru6-3" target="YfJi4UTB4DRv9i2F9Ru6-1">
          <mxGeometry width="160" relative="1" as="geometry">
            <mxPoint x="940" y="554.5" as="sourcePoint" />
            <mxPoint x="1100" y="554.5" as="targetPoint" />
          </mxGeometry>
        </mxCell>
        <mxCell id="YfJi4UTB4DRv9i2F9Ru6-49" value="" style="endArrow=block;startArrow=block;endFill=1;startFill=1;html=1;rounded=0;exitX=1;exitY=0.5;exitDx=0;exitDy=0;entryX=0;entryY=0.5;entryDx=0;entryDy=0;" edge="1" parent="WIyWlLk6GJQsqaUBKTNV-1" source="YfJi4UTB4DRv9i2F9Ru6-0" target="YfJi4UTB4DRv9i2F9Ru6-5">
          <mxGeometry width="160" relative="1" as="geometry">
            <mxPoint x="350" y="844.5" as="sourcePoint" />
            <mxPoint x="510" y="844.5" as="targetPoint" />
          </mxGeometry>
        </mxCell>
        <mxCell id="YfJi4UTB4DRv9i2F9Ru6-52" value="" style="endArrow=block;startArrow=block;endFill=1;startFill=1;html=1;rounded=0;exitX=0;exitY=0;exitDx=0;exitDy=0;entryX=1;entryY=1;entryDx=0;entryDy=0;" edge="1" parent="WIyWlLk6GJQsqaUBKTNV-1" source="YfJi4UTB4DRv9i2F9Ru6-1" target="YfJi4UTB4DRv9i2F9Ru6-4">
          <mxGeometry width="160" relative="1" as="geometry">
            <mxPoint x="1120" y="200" as="sourcePoint" />
            <mxPoint x="920" y="300" as="targetPoint" />
          </mxGeometry>
        </mxCell>
        <mxCell id="YfJi4UTB4DRv9i2F9Ru6-54" value="" style="endArrow=block;startArrow=block;endFill=1;startFill=1;html=1;rounded=0;entryX=0.5;entryY=1;entryDx=0;entryDy=0;exitX=0.5;exitY=0;exitDx=0;exitDy=0;" edge="1" parent="WIyWlLk6GJQsqaUBKTNV-1" source="YfJi4UTB4DRv9i2F9Ru6-55" target="YfJi4UTB4DRv9i2F9Ru6-5">
          <mxGeometry width="160" relative="1" as="geometry">
            <mxPoint x="770" y="920" as="sourcePoint" />
            <mxPoint x="845" y="970" as="targetPoint" />
          </mxGeometry>
        </mxCell>
        <mxCell id="YfJi4UTB4DRv9i2F9Ru6-55" value="IdMagazzino" style="ellipse;whiteSpace=wrap;html=1;align=center;" vertex="1" parent="WIyWlLk6GJQsqaUBKTNV-1">
          <mxGeometry x="715" y="930" width="100" height="40" as="geometry" />
        </mxCell>
        <mxCell id="57IK1kEH1eIlYfkZj7Bx-0" value="" style="endArrow=block;startArrow=block;endFill=1;startFill=1;html=1;rounded=0;entryX=0.5;entryY=0;entryDx=0;entryDy=0;exitX=0.5;exitY=1;exitDx=0;exitDy=0;" edge="1" parent="WIyWlLk6GJQsqaUBKTNV-1" source="57IK1kEH1eIlYfkZj7Bx-3" target="57IK1kEH1eIlYfkZj7Bx-4">
          <mxGeometry width="160" relative="1" as="geometry">
            <mxPoint x="295" y="210" as="sourcePoint" />
            <mxPoint x="455" y="210" as="targetPoint" />
            <Array as="points">
              <mxPoint x="375" y="210" />
            </Array>
          </mxGeometry>
        </mxCell>
        <mxCell id="57IK1kEH1eIlYfkZj7Bx-1" value="" style="endArrow=block;startArrow=block;endFill=1;startFill=1;html=1;rounded=0;entryX=0.445;entryY=1;entryDx=0;entryDy=0;exitX=0.5;exitY=0;exitDx=0;exitDy=0;entryPerimeter=0;" edge="1" parent="WIyWlLk6GJQsqaUBKTNV-1" source="57IK1kEH1eIlYfkZj7Bx-2" target="57IK1kEH1eIlYfkZj7Bx-4">
          <mxGeometry width="160" relative="1" as="geometry">
            <mxPoint x="230" y="320" as="sourcePoint" />
            <mxPoint x="390" y="320" as="targetPoint" />
          </mxGeometry>
        </mxCell>
        <mxCell id="57IK1kEH1eIlYfkZj7Bx-2" value="Soglia" style="ellipse;whiteSpace=wrap;html=1;align=center;" vertex="1" parent="WIyWlLk6GJQsqaUBKTNV-1">
          <mxGeometry x="320" y="330" width="100" height="40" as="geometry" />
        </mxCell>
        <mxCell id="57IK1kEH1eIlYfkZj7Bx-3" value="IdMagazzino&lt;div&gt;IdCategoria&lt;/div&gt;" style="ellipse;whiteSpace=wrap;html=1;align=center;fontStyle=4;" vertex="1" parent="WIyWlLk6GJQsqaUBKTNV-1">
          <mxGeometry x="325" y="140" width="100" height="40" as="geometry" />
        </mxCell>
        <mxCell id="57IK1kEH1eIlYfkZj7Bx-4" value="SogliaRestock" style="html=1;whiteSpace=wrap;" vertex="1" parent="WIyWlLk6GJQsqaUBKTNV-1">
          <mxGeometry x="320" y="240" width="110" height="50" as="geometry" />
        </mxCell>
        <mxCell id="57IK1kEH1eIlYfkZj7Bx-8" value="" style="endArrow=none;html=1;rounded=0;entryX=0;entryY=1;entryDx=0;entryDy=0;exitX=1;exitY=0;exitDx=0;exitDy=0;" edge="1" parent="WIyWlLk6GJQsqaUBKTNV-1" source="YfJi4UTB4DRv9i2F9Ru6-2" target="57IK1kEH1eIlYfkZj7Bx-4">
          <mxGeometry width="50" height="50" relative="1" as="geometry">
            <mxPoint x="570" y="370" as="sourcePoint" />
            <mxPoint x="620" y="320" as="targetPoint" />
          </mxGeometry>
        </mxCell>
        <mxCell id="57IK1kEH1eIlYfkZj7Bx-9" value="" style="endArrow=none;html=1;rounded=0;exitX=1;exitY=0.5;exitDx=0;exitDy=0;entryX=0;entryY=0.5;entryDx=0;entryDy=0;" edge="1" parent="WIyWlLk6GJQsqaUBKTNV-1" source="57IK1kEH1eIlYfkZj7Bx-4" target="YfJi4UTB4DRv9i2F9Ru6-4">
          <mxGeometry width="50" height="50" relative="1" as="geometry">
            <mxPoint x="610" y="370" as="sourcePoint" />
            <mxPoint x="660" y="320" as="targetPoint" />
          </mxGeometry>
        </mxCell>
        <mxCell id="Og-l5dLJcIWVWk0OJmHE-0" value="" style="endArrow=none;html=1;rounded=0;exitX=1;exitY=0.25;exitDx=0;exitDy=0;entryX=0.5;entryY=1;entryDx=0;entryDy=0;" edge="1" parent="WIyWlLk6GJQsqaUBKTNV-1" source="YfJi4UTB4DRv9i2F9Ru6-5" target="YfJi4UTB4DRv9i2F9Ru6-1">
          <mxGeometry width="50" height="50" relative="1" as="geometry">
            <mxPoint x="970" y="720" as="sourcePoint" />
            <mxPoint x="1020" y="670" as="targetPoint" />
            <Array as="points">
              <mxPoint x="1270" y="750" />
            </Array>
          </mxGeometry>
        </mxCell>
      </root>
    </mxGraphModel>
  </diagram>
</mxfile>
